<svg width="117" height="25" viewBox="0 0 117 25" fill="none" xmlns="http://www.w3.org/2000/svg">
<path fill-rule="evenodd" clip-rule="evenodd" d="M81.8592 16.353C80.1735 15.9298 80.1735 15.9122 80.1735 15.0129C80.1735 14.4071 80.2351 14.118 81.6236 14.118C82.577 14.118 83.9799 14.2767 84.8826 14.4301C85.0059 14.4477 85.1327 14.4213 85.2343 14.3419C85.3358 14.2714 85.401 14.1568 85.4155 14.0333L85.6729 12.0187C85.691 11.7895 85.546 11.5779 85.3104 11.525C84.2591 11.2904 82.809 11.137 81.6127 11.137C77.4256 11.137 76.5737 12.6711 76.5737 14.9758C76.5737 17.5089 77.054 18.3614 80.2569 19.1197C82.3667 19.6134 82.3667 19.9793 82.3667 20.5877C82.3667 21.3865 82.2942 21.6633 80.9166 21.6633C79.8037 21.6633 78.5168 21.4958 77.3857 21.2013C77.2588 21.1713 77.1319 21.1907 77.0232 21.2542C76.9144 21.323 76.8365 21.4305 76.8129 21.554L76.4667 23.4769C76.425 23.6973 76.5574 23.9133 76.7749 23.9821C78.0111 24.37 79.7838 24.6345 81.0852 24.6345C85.1346 24.6345 85.9611 22.977 85.9611 20.5083C85.9611 17.7751 85.4644 17.2638 81.8538 16.3345L81.8592 16.3521V16.353ZM71.3588 16.353C69.6731 15.9298 69.6731 15.9122 69.6731 15.0129C69.6731 14.4071 69.7347 14.118 71.1232 14.118C72.0748 14.118 73.4796 14.2767 74.3822 14.4301C74.5055 14.4477 74.6324 14.4213 74.7339 14.3419C74.8354 14.2714 74.9006 14.1568 74.9151 14.0333L75.1725 12.0187C75.2015 11.7895 75.0493 11.5779 74.8191 11.525C73.7859 11.2904 72.3358 11.137 71.1395 11.137C66.9633 11.137 66.1005 12.6711 66.1005 14.9758C66.1005 17.5089 66.5899 18.3614 69.7909 19.1197C71.9008 19.6134 71.9008 19.9793 71.9008 20.5877C71.9008 21.3865 71.8283 21.6633 70.4507 21.6633C69.336 21.6633 68.049 21.4958 66.9162 21.2013C66.7893 21.1713 66.6624 21.1907 66.5536 21.2542C66.4449 21.323 66.3669 21.4305 66.3434 21.554L65.9809 23.4672C65.9446 23.6876 66.0715 23.9045 66.2944 23.9733C67.527 24.3612 69.2997 24.6257 70.603 24.6257C74.6451 24.6257 75.4789 22.9682 75.4789 20.4995C75.4789 17.7663 74.975 17.2549 71.3643 16.3257L71.3588 16.3433V16.353ZM34.1916 7.09015C34.1318 6.90324 33.9559 6.77627 33.7529 6.77627H29.4598C29.2604 6.77627 29.0791 6.90235 29.0193 7.0875L23.6024 23.7855C23.5607 23.9177 23.5843 24.0676 23.6713 24.1822C23.7583 24.2969 23.896 24.3648 24.0428 24.3648H26.9974C27.2022 24.3648 27.3816 24.2325 27.4397 24.0473L31.1709 11.7568C31.1709 11.7568 31.2706 11.4483 31.6059 11.4483C31.9503 11.4483 32.0409 11.7657 32.0409 11.7657L33.772 17.5935H31.4518C31.2524 17.5935 31.0712 17.7284 31.0168 17.9197L30.3461 20.2297C30.3099 20.362 30.3461 20.5118 30.4187 20.6176C30.5093 20.7296 30.6543 20.794 30.7993 20.794H34.7598L35.8021 24.05C35.8601 24.2351 36.0377 24.3621 36.2371 24.3621H39.1916C39.3366 24.3621 39.478 24.2916 39.565 24.177C39.6556 24.0606 39.681 23.9125 39.6375 23.7767L34.2151 7.06017L34.197 7.08839L34.1916 7.09015ZM90.6539 11.4051H87.935C87.6812 11.4051 87.4764 11.6052 87.4764 11.8521V23.9486C87.4764 24.1955 87.6831 24.4 87.9368 24.4H90.6557C90.9095 24.4 91.1152 24.1999 91.1152 23.9504V11.8565C91.1152 11.6096 90.9158 11.413 90.6621 11.413L90.653 11.4059L90.6539 11.4051ZM52.1 6.45006H49.3811C49.1274 6.45006 48.9225 6.6502 48.9225 6.89706V23.9486C48.9225 24.1955 49.1292 24.4 49.3829 24.4H52.1018C52.3556 24.4 52.5604 24.1999 52.5604 23.9504V6.90147C52.5604 6.6546 52.361 6.45799 52.1073 6.45799L52.1 6.45094V6.45006ZM113.221 11.145C111.784 11.145 109.822 11.6281 108.164 12.3864L107.964 11.7339C107.91 11.5399 107.729 11.4121 107.525 11.4121H105.513C105.259 11.4121 105.05 11.6122 105.05 11.8591V23.9557C105.05 24.2025 105.25 24.4053 105.504 24.4053H108.222C108.476 24.4053 108.685 24.2061 108.685 23.9557V15.5798C109.664 15.0949 111.041 14.5923 111.859 14.5923C112.472 14.5923 112.699 14.8162 112.699 15.4123V23.9468C112.699 24.1972 112.907 24.3965 113.161 24.3965H115.88C116.134 24.3965 116.338 24.1972 116.338 23.9468V15.0658C116.338 12.4692 115.287 11.1511 113.219 11.1511H113.217L113.221 11.145ZM10.4556 18.3368C10.3831 18.2662 10.2798 18.1913 10.1022 18.1913C9.8756 18.1913 9.74328 18.3429 9.69253 18.417C8.42372 20.3038 7.77118 22.0847 7.68055 23.8745C7.67783 24.0068 7.72859 24.139 7.82103 24.236C7.91166 24.3418 8.0476 24.3947 8.18355 24.3947H11.1961C11.4589 24.3947 11.6764 24.2008 11.6945 23.9539C11.767 23.0899 12.0389 22.2258 12.5465 21.3265C12.7187 21.0091 12.5827 20.7182 12.483 20.5921C11.9846 19.9573 11.3746 19.2872 10.4683 18.365L10.4647 18.3473L10.4556 18.3368ZM60.9156 19.624V21.1819C60.4715 21.4288 59.6558 21.7638 58.6679 21.7638C57.8251 21.7638 57.5623 21.517 57.5623 20.6882C57.5623 19.8947 57.7254 19.6443 58.7223 19.6443H60.9156V19.6249V19.624ZM99.542 19.624V21.1819C99.0888 21.4288 98.2732 21.7638 97.2944 21.7638C96.4515 21.7638 96.1887 21.517 96.1887 20.6882C96.1887 19.8947 96.3518 19.6443 97.3487 19.6443H99.542V19.6249V19.624ZM47.0764 21.815C47.0583 21.688 46.9858 21.5769 46.877 21.5064C46.7683 21.4358 46.6396 21.4147 46.5127 21.4447C46.0233 21.561 45.5701 21.6245 45.2076 21.6245C44.537 21.6245 44.2288 21.3424 44.2288 20.7076V14.2978H46.8661C47.1199 14.2978 47.3265 14.095 47.3265 13.8482V11.8468C47.3265 11.5999 47.1181 11.3971 46.8643 11.3971H44.2361V8.32096C44.2361 8.18871 44.1744 8.06792 44.0729 7.98152C43.9732 7.896 43.8373 7.85809 43.7104 7.87572L40.9915 8.24602C40.7631 8.27512 40.5927 8.4638 40.5927 8.68686V11.4024H39.1091C38.8554 11.4024 38.6487 11.6025 38.6487 11.8494V13.8596C38.6487 14.1065 38.8663 14.311 39.12 14.311H40.5991V21.1264C40.5991 23.469 41.8625 24.6531 44.3566 24.6531C45.0635 24.6531 46.2707 24.4944 47.0574 24.2299C47.2658 24.1593 47.3945 23.9539 47.3601 23.7361L47.0655 21.8229L47.0746 21.8097L47.0764 21.815ZM59.093 11.1511C57.7154 11.1511 56.0406 11.3627 54.8243 11.689C54.5887 11.7507 54.4437 11.9667 54.4799 12.1915L54.7935 14.1136C54.8116 14.2308 54.8842 14.3366 54.9838 14.4071C55.0854 14.4777 55.2122 14.4953 55.3355 14.4777C56.4647 14.2661 57.632 14.1426 58.6199 14.1426C60.5775 14.1426 60.8929 14.5482 60.8929 15.8355V16.964H57.9928C55.2122 16.964 54.0232 18.0749 54.0232 20.7023C54.0232 23.2062 55.3282 24.6345 57.594 24.6345C58.9117 24.6345 60.2277 24.2819 61.3334 23.6294L61.4512 24.0403C61.5056 24.2343 61.6868 24.3665 61.8953 24.3665H64.103C64.3568 24.3665 64.5616 24.1637 64.5616 23.9169V15.876C64.5616 12.4199 63.0843 11.1326 59.1057 11.1326L59.0894 11.1414L59.093 11.1511ZM97.7131 11.1511C96.3355 11.1511 94.6679 11.3627 93.4535 11.689C93.2269 11.7507 93.0819 11.9667 93.1227 12.1915L93.4399 14.1136C93.458 14.2308 93.5305 14.3366 93.6302 14.4071C93.7335 14.4777 93.8604 14.4953 93.9836 14.4777C95.1075 14.2661 96.2675 14.1426 97.2644 14.1426C99.222 14.1426 99.5302 14.5482 99.5302 15.8355V16.964H96.63C93.8386 16.964 92.6496 18.0749 92.6496 20.7023C92.6496 23.2062 93.9519 24.6345 96.2204 24.6345C97.5372 24.6345 98.8486 24.2819 99.9543 23.6294L100.072 24.0403C100.127 24.2343 100.308 24.3665 100.516 24.3665H102.709C102.963 24.3665 103.172 24.1637 103.172 23.9169V15.876C103.172 12.4199 101.694 11.1326 97.7158 11.1326L97.7203 11.1414L97.7131 11.1511ZM22.678 6.53117C22.5873 6.46504 22.4831 6.43154 22.3762 6.43154C22.3037 6.43154 22.2493 6.44212 22.1949 6.46328C21.1074 6.86356 20.0198 7.16862 19.0229 7.39256C18.8235 7.44546 18.6458 7.58653 18.5878 7.76287C17.8628 9.70254 15.9958 11.5541 14.0564 13.4761C13.9839 13.5466 13.8751 13.6524 13.6938 13.6524C13.5126 13.6524 13.4038 13.5643 13.3313 13.4884C11.3737 11.5576 9.52487 9.7237 8.79983 7.78403C8.72733 7.60769 8.56419 7.46662 8.36481 7.41372C7.36788 7.18449 6.2622 6.8759 5.19276 6.47915C5.13839 6.46152 5.06951 6.4527 5.01151 6.4527C4.90275 6.4527 4.79762 6.48797 4.7088 6.55233C4.57104 6.64931 4.50035 6.81683 4.51667 6.97553C4.6798 8.58547 5.3414 10.1584 6.51958 11.8071C7.63433 13.3588 9.07534 14.796 10.4801 16.1837C13.054 18.7406 15.4919 21.1563 15.7076 23.9601C15.7258 24.2105 15.9433 24.4062 16.2007 24.4062H19.2277C19.3636 24.4062 19.496 24.3533 19.5902 24.2563C19.6845 24.1593 19.7352 24.0306 19.7262 23.8983C19.6301 22.0266 18.905 20.1512 17.5093 18.1648C17.2193 17.7504 16.9112 17.3449 16.5822 16.9481C16.4499 16.7894 16.5061 16.5866 16.6076 16.4879L16.9157 16.1846C18.3178 14.8004 19.7615 13.3632 20.8762 11.8115C22.0544 10.1672 22.707 8.60222 22.8746 6.99317C22.8928 6.83006 22.8166 6.65813 22.6825 6.5585L22.6916 6.54528L22.678 6.53117ZM13.7056 7.97711C14.6545 7.97711 15.2055 7.91804 15.3977 7.91804C15.6152 7.91804 15.8508 8.09437 15.8508 8.35888C15.8508 8.42941 15.8327 8.48231 15.8146 8.53521C15.6877 8.85967 15.1077 10.0376 14.0382 11.048C13.9113 11.1608 13.7845 11.182 13.6938 11.182C13.6032 11.182 13.4582 11.1608 13.3368 11.048C12.2673 10.0376 11.6945 8.86143 11.5695 8.53168C11.5513 8.47878 11.5332 8.42588 11.5332 8.34653C11.5332 8.09085 11.7562 7.89688 11.99 7.89688C12.1839 7.89688 12.7332 7.94978 13.683 7.94978H13.6866L13.7047 7.96741L13.7056 7.97711ZM90.6521 6.45446H87.9405C87.6867 6.45446 87.4801 6.64843 87.4801 6.8953V9.22291C87.4801 9.46978 87.6867 9.6708 87.9405 9.6708H90.6593C90.9131 9.6708 91.1188 9.47684 91.1188 9.22997V6.88384C91.1188 6.63697 90.9131 6.43859 90.6593 6.43859L90.6521 6.45975V6.45446ZM26.9466 0.901692C26.8261 0.742991 26.6385 0.654824 26.4391 0.654824C26.3367 0.654824 26.2352 0.675984 26.1491 0.725358C22.4333 2.7003 18.1311 3.74597 13.7011 3.74773C9.27292 3.74773 4.96982 2.7003 1.25762 0.723595C1.16699 0.670694 1.0673 0.653061 0.967605 0.653061C0.76822 0.653061 0.577897 0.741228 0.460079 0.899929C0.284257 1.11153 0.278819 1.49947 0.577897 1.7287C2.43581 3.06884 4.48585 4.12685 6.66822 4.84982C8.93396 5.59043 11.2976 5.97836 13.7011 5.97836C16.1064 5.97836 18.4718 5.59043 20.734 4.84982C22.9181 4.12685 24.9682 3.06884 26.8297 1.7287C27.1288 1.49947 27.1197 1.11153 26.9475 0.882296V0.901692H26.9466Z" fill="#5982E7"/>
</svg>
