<svg width="117" height="28" viewBox="0 0 117 28" fill="none" xmlns="http://www.w3.org/2000/svg">
<path fill-rule="evenodd" clip-rule="evenodd" d="M105.32 17.0635C105.32 14.8347 104.355 12.255 101.352 8.65882L94.1113 0H84.0302L89.7695 6.07487C90.7365 7.08791 91.968 7.99829 91.968 7.99829C90.5724 7.23936 88.8052 6.93562 87.4096 6.93562C84.0855 6.93562 80.707 7.59444 77.7037 9.16364C74.4865 10.8338 72.3387 13.6188 72.3387 17.3159C72.3387 20.1506 73.6817 22.3281 75.3973 23.9983C79.2579 27.6458 86.284 27.9991 88.8587 27.9991C92.6668 27.9991 98.6208 27.188 101.998 24.3029C103.984 22.5814 105.323 20.2019 105.323 17.0644L105.32 17.0635ZM116.421 7.49348H107.68V27.3412H116.421V7.49348ZM44.5585 27.3412L25.2508 0H14.4184L17.4118 3.34118L0.421387 27.3412H10.1817L13.0935 22.8355H31.503L34.4755 27.3395H44.5585V27.3412ZM70.1392 19.0374V7.49348H61.6676V16.3542C61.6676 18.8868 61.5588 19.5936 61.3984 20.2516C60.8094 22.074 58.7703 22.8834 56.6769 22.8834C53.7814 22.8834 52.4401 21.8199 51.9055 20.1489C51.7423 19.5927 51.6907 18.987 51.6372 18.3778C51.5828 17.7206 51.6372 17.0113 51.6372 16.2516V7.49348H43.0568V19.0871C43.0568 21.671 43.9676 23.5936 45.4693 24.9112C48.043 27.2898 52.3876 28 56.4104 28C61.2915 28 65.047 27.3412 67.7277 24.8599C69.1233 23.5936 70.1419 21.9234 70.1419 19.0374H70.1392ZM96.9551 17.3159C96.9551 19.3908 95.507 20.9609 93.6836 21.8216C92.1828 22.5814 90.412 22.7833 88.856 22.7833C87.3009 22.7833 85.4775 22.4813 83.9758 21.7711C82.1524 20.9112 80.7586 19.2402 80.7586 17.416C80.7586 15.2402 82.5276 13.5187 84.6193 12.6571C85.9061 12.0993 87.4622 11.8973 88.6947 11.8973C89.8746 11.8973 91.592 12.0488 92.9314 12.5562C95.3456 13.5187 96.9551 15.3403 96.9551 17.3159V17.3159ZM28.1001 17.4999H16.4321L22.2466 8.44235L28.101 17.4999H28.1001Z" fill="#D6DAE5"/>
</svg>
