<svg width="116" height="30" viewBox="0 0 116 30" fill="none" xmlns="http://www.w3.org/2000/svg">
<path fill-rule="evenodd" clip-rule="evenodd" d="M14.8569 24.0004C14.6875 24.0004 14.6032 24.0864 14.6032 24.0864C14.6032 24.0864 12.48 25.8063 8.65862 25.8063C4.83904 25.8054 2.71856 24.0854 2.71856 24.0854C2.71856 24.0854 2.5491 24.0004 2.46483 24.0004C2.29447 24.0004 2.1241 24.0864 2.1241 24.3434V24.4285C2.46392 26.229 2.71856 27.5143 2.71856 27.6854C2.97229 28.9717 5.52049 30 8.57615 30C11.6327 30 14.18 28.9717 14.4346 27.6854C14.4346 27.5143 14.6884 26.229 15.0237 24.4285V24.3434C15.1052 24.1714 15.0237 24.0004 14.8515 24.0004H14.8569ZM32.0908 19.8012C33.1945 19.201 33.6195 18.3438 33.6195 17.0566V15.2571C33.6195 12.6863 32.0908 11.4019 28.8648 11.4019H22.4127C22.159 11.4019 21.9886 11.5739 21.9886 11.8318V28.6286C21.9886 28.8866 22.1581 29.0586 22.4127 29.0586H29.374C32.4306 29.0586 34.2131 27.5152 34.2131 24.8594V23.0571C34.2131 21.5156 33.4492 20.3162 32.0908 19.8003V19.8012ZM38.7132 16.0292H36.0853C35.8315 16.0292 35.6594 16.2012 35.6594 16.4592V28.6286C35.6594 28.8848 35.8315 29.0586 36.0853 29.0586H38.7223C38.976 29.0586 39.1482 28.8848 39.1482 28.6286V16.4583C39.1482 16.2021 38.976 16.0283 38.7223 16.0283L38.7132 16.0292ZM101.965 15.7731C98.4037 15.7731 96.6185 17.5726 96.6185 20.9146V24.2574C96.6185 27.6863 98.4037 29.3148 102.137 29.3148C103.669 29.3148 105.282 29.0586 106.641 28.5426C106.81 28.4575 106.98 28.2865 106.895 28.0285L106.471 26.1439C106.471 26.057 106.386 25.8859 106.301 25.8859C106.216 25.7999 106.047 25.7999 105.961 25.7999C104.774 26.143 103.585 26.315 102.482 26.315C100.529 26.315 100.189 25.7148 100.189 24.3434V23.9135H106.726C106.98 23.9135 107.152 23.7433 107.152 23.4862V21.0865C107.067 17.4866 105.454 15.7712 101.973 15.7712L101.965 15.7731ZM55.3599 26.2299C54.6802 26.2299 54.1728 26.2299 53.6653 26.143V19.5377C54.4301 19.19 55.4487 18.8515 56.2117 18.8515C57.2311 18.8515 57.6561 19.2815 57.6561 20.2238V24.0754C57.6561 25.5328 57.3163 26.2189 55.3635 26.2189L55.3599 26.2299ZM115.721 26.486C115.721 26.4 115.639 26.2299 115.555 26.143C115.47 26.0515 115.301 26.0515 115.215 26.0515C114.706 26.1338 114.282 26.2253 113.942 26.2253C113.262 26.2253 113.009 25.9691 113.009 25.283V18.8515H115.555C115.809 18.8515 115.977 18.6777 115.977 18.4216V16.4546C115.977 16.1985 115.809 16.0246 115.554 16.0246H113.008V12.9416C113.008 12.7677 112.921 12.6808 112.836 12.5958C112.75 12.5098 112.582 12.5098 112.496 12.5098L109.865 12.8574C109.611 12.8574 109.439 13.1136 109.439 13.2846V16.0274H107.998C107.745 16.0274 107.573 16.1994 107.573 16.4574V18.4271C107.573 18.6832 107.745 18.857 107.998 18.857H109.439V25.7111C109.439 28.0257 110.629 29.2242 113.091 29.2242C113.771 29.2242 114.958 29.055 115.723 28.7942C115.893 28.7119 116.064 28.5381 115.977 28.2819L115.723 26.4833L115.721 26.486ZM48.5707 26.486C48.5707 26.4 48.4864 26.2299 48.4012 26.143C48.317 26.0515 48.1475 26.0515 48.0623 26.0515C47.6364 26.1338 47.129 26.2253 46.7891 26.2253C46.1095 26.2253 45.8558 25.9691 45.8558 25.283V18.8515H48.4022C48.6559 18.8515 48.8281 18.6777 48.8281 18.4216V16.4546C48.8281 16.1985 48.6559 16.0246 48.4022 16.0246H45.8531V12.9416C45.8531 12.7677 45.7679 12.6808 45.6827 12.5958C45.5975 12.5098 45.429 12.5098 45.3429 12.5098L42.7131 12.8574C42.4594 12.8574 42.2899 13.1136 42.2899 13.2846V16.0274H40.8418C40.5881 16.0274 40.4159 16.1994 40.4159 16.4574V18.4271C40.4159 18.6832 40.5863 18.857 40.8418 18.857H42.2845V25.7111C42.2845 28.0257 43.4716 29.2242 45.9337 29.2242C46.6133 29.2242 47.8004 29.055 48.5616 28.7942C48.7338 28.7119 48.9015 28.5381 48.8154 28.2819L48.5616 26.4833L48.5707 26.486ZM83.8032 26.315C83.8032 26.229 83.7181 26.057 83.6338 25.9719C83.5495 25.8859 83.3801 25.8859 83.2949 25.8859C82.531 26.057 81.767 26.142 81.0022 26.142C79.3049 26.142 78.8799 25.7148 78.8799 24.2574V20.7444C78.8799 19.2861 79.3892 18.858 81.0022 18.858C81.4281 18.858 82.3615 18.9439 83.2949 19.1141C83.3792 19.1141 83.5486 19.1141 83.6338 19.029C83.7172 18.9439 83.8023 18.858 83.8023 18.686L84.144 16.6294C84.144 16.3732 84.0579 16.2012 83.8032 16.1152C82.7856 15.7721 81.5967 15.6852 80.918 15.6852C76.9271 15.6852 75.3132 17.1435 75.3132 20.7444V24.1714C75.3132 27.7714 76.9262 29.2288 80.9152 29.2288C81.8486 29.2288 82.9523 29.0577 83.8014 28.7988C84.0552 28.7146 84.1413 28.5426 84.1413 28.2865L83.8005 26.315H83.8032ZM25.5626 25.9719H28.7053C30.0646 25.9719 30.572 25.6288 30.572 24.5145V23.2246C30.572 22.1084 30.1497 21.6785 28.959 21.6785H27.8535C27.5997 21.6785 27.4276 21.5046 27.4276 21.2485V19.1178C27.4276 18.8598 27.5997 18.6878 27.8535 18.6878H28.4479C29.5517 18.6878 29.9758 18.2596 29.9758 17.2313V15.6871C29.9758 15.0869 29.8108 14.4868 28.4534 14.4868H25.5545V25.9719H25.5626ZM73.2734 16.0292H70.6454C70.3917 16.0292 70.2195 16.2012 70.2195 16.4592V24.8576C69.2861 25.3717 67.9269 25.8859 67.1657 25.8859C66.5703 25.8859 66.3138 25.6297 66.3138 25.0287V16.4647C66.3138 16.2085 66.1417 16.0347 65.8879 16.0347H63.2518C62.9981 16.0347 62.8277 16.2085 62.8277 16.4647V25.3781C62.8277 27.9489 63.8445 29.3212 65.8816 29.3212C67.2409 29.3212 69.1928 28.8061 70.8058 28.0349L70.9753 28.721C71.0632 28.893 71.2335 29.065 71.4012 29.065H73.3558C73.6096 29.065 73.7799 28.8912 73.7799 28.635V16.4583C73.6947 16.2845 73.5262 16.0283 73.2706 16.0283L73.2734 16.0292ZM8.66224 9.85942C3.90567 9.85942 0 11.143 0 12.7714C0 13.2014 1.01855 19.2852 1.44356 21.6858C1.61301 22.7992 4.41585 24.3425 8.65952 24.3425C12.9041 24.3425 15.6208 22.8056 15.8755 21.6894C16.2923 19.2925 17.3163 13.2087 17.3163 12.7787C17.2257 11.1503 13.4107 9.86582 8.65318 9.86582L8.66224 9.85942ZM8.66224 22.3719C7.13532 22.3719 5.9464 21.1716 5.9464 19.6292C5.9464 18.0831 7.1335 16.8846 8.66133 16.8846C10.1892 16.8846 11.3781 18.0831 11.3781 19.6292C11.3781 21.0838 10.1892 22.3646 8.66133 22.3646L8.66224 22.3719ZM96.1075 28.2856L92.6259 22.4579L96.0241 16.7218C96.1084 16.5479 96.1084 16.3814 96.0241 16.2918C95.938 16.1244 95.7685 16.0356 95.5982 16.0356H92.712C92.5416 16.0356 92.3712 16.1244 92.2861 16.2918L89.06 21.9538V11.4879C89.06 11.2299 88.8879 11.0579 88.6341 11.0579H86.0017C85.7479 11.0579 85.5758 11.2299 85.5758 11.4879V28.5408C85.5758 28.797 85.7479 28.9708 86.0017 28.9708H88.6332C88.887 28.9708 89.0591 28.797 89.0591 28.5408V22.9693L92.4519 28.797C92.5371 28.9708 92.7056 29.0559 92.7917 29.0559H95.677C95.9307 29.0559 96.1029 28.8839 96.1029 28.6259C96.1863 28.4557 96.1863 28.3697 96.1029 28.2837L96.1075 28.2856ZM100.097 21.0033V20.5733C100.097 19.2925 100.691 18.7802 101.964 18.7802C103.408 18.7802 103.662 19.4663 103.662 20.5825V21.0124H100.097V21.0033ZM8.66315 18.1755C9.41166 18.1755 10.0224 18.7957 10.0224 19.5478C10.0224 20.3071 9.41166 20.92 8.66315 20.92C7.91464 20.92 7.30387 20.3071 7.30387 19.5478C7.30387 18.7957 7.91282 18.1755 8.66315 18.1755ZM57.1387 15.7785C55.8655 15.7785 54.5071 16.1244 53.6589 16.4647V11.5793C53.6589 11.3232 53.4886 11.1494 53.233 11.1494H50.6015C50.3477 11.1494 50.1756 11.3232 50.1756 11.5793V28.5499C50.1756 28.8061 50.3477 28.9799 50.5154 28.9799C52.1284 29.2361 54.0812 29.4099 55.185 29.4099C60.1092 29.4099 61.1277 27.2673 61.1277 24.0946V20.4077C61.1277 17.3247 59.7685 15.7785 57.1378 15.7785H57.1387ZM36.0844 14.2324C35.8306 14.2324 35.6584 14.0604 35.6584 13.8025V11.4879C35.6584 11.2299 35.8306 11.0579 36.0844 11.0579H38.7168C38.9724 11.0579 39.1427 11.3159 39.1427 11.4879V13.8006C39.1427 14.0568 38.9724 14.2306 38.7168 14.2306H36.0844V14.2324ZM8.66133 13.6286C5.60386 13.6286 3.14266 13.1163 3.14266 12.4302C3.14266 11.744 5.60386 11.2299 8.66133 11.2299C11.717 11.2299 14.18 11.744 14.18 12.4283C14.18 13.1145 11.717 13.6295 8.66133 13.6295V13.6286ZM42.7041 6.85869C42.28 6.85869 41.6003 6.68669 41.2605 6.4287C41.1789 6.4287 41.1789 6.34453 41.1789 6.25854L41.3484 5.5724L41.43 5.48731H41.5994C42.0253 5.5788 42.4476 5.66114 42.8717 5.66114C43.3882 5.66114 43.3882 5.49646 43.3882 5.23115C43.3882 5.06648 43.3882 4.89266 42.6225 4.71883C41.4354 4.46267 41.2632 4.12418 41.2632 3.18187C41.2632 2.32557 41.5188 1.72725 43.0484 1.72725C43.4716 1.72725 44.0661 1.80959 44.4077 1.89741C44.4077 1.89741 44.4892 1.98341 44.4892 2.06849L44.405 2.83697L44.3207 2.92297H44.1503C43.9999 2.92297 43.8187 2.90742 43.6338 2.88912L43.4734 2.87265C43.2885 2.85435 43.1073 2.83606 42.9587 2.83606C42.4494 2.83606 42.4494 2.92114 42.4494 3.17821C42.4494 3.52586 42.4494 3.52586 43.0439 3.69602C44.3162 4.04001 44.4847 4.29708 44.4847 5.32447C44.4847 6.26128 44.1494 6.8596 42.7358 6.86875H42.7031L42.7041 6.85869ZM38.966 6.85869C38.4586 6.85869 37.8632 6.68669 37.2687 6.4287C37.1836 6.4287 37.1836 6.34453 37.1836 6.25854L37.3539 5.5724L37.4445 5.48731H37.6167C38.0399 5.5788 38.4649 5.66114 38.889 5.66114C39.3965 5.66114 39.3965 5.49646 39.3965 5.23115C39.3965 5.06648 39.3965 4.89266 38.6335 4.71883C37.4464 4.46267 37.2742 4.12418 37.2742 3.18187C37.2742 2.32557 37.5306 1.72725 39.0594 1.72725C39.4835 1.72725 40.0779 1.80959 40.4187 1.89741C40.502 1.89741 40.5872 1.98341 40.5872 2.06849L40.5038 2.84063L40.4205 2.92571H40.3298C40.1821 2.92571 40.0009 2.90742 39.816 2.88912L39.6565 2.87357C39.4717 2.85527 39.2904 2.84063 39.14 2.84063C38.6235 2.84063 38.6235 2.92297 38.6235 3.17913C38.6235 3.52403 38.6235 3.52403 39.2198 3.69511C40.493 4.04001 40.6633 4.29708 40.7476 5.32355C40.7476 6.26128 40.4123 6.86051 38.9987 6.86966H38.966V6.85869ZM54.335 1.80135C53.8248 1.80135 53.1451 1.97335 52.4664 2.23134L52.3812 1.97335C52.3812 1.88735 52.2969 1.88735 52.2118 1.88735H51.4478C51.3627 1.88735 51.2775 1.97335 51.2775 2.05843V6.60252C51.2775 6.68669 51.3627 6.77269 51.4478 6.77269H52.4664C52.5516 6.77269 52.6359 6.68669 52.6359 6.60161V3.42797C52.9757 3.25689 53.485 3.08581 53.8248 3.08581C54.0785 3.08581 54.1646 3.1709 54.1646 3.42797V6.60252C54.1646 6.68669 54.2489 6.77269 54.3341 6.77269H55.349C55.4305 6.77269 55.5212 6.68669 55.5212 6.60161V3.25415C55.4305 2.22585 55.0953 1.79678 54.3341 1.79678L54.335 1.80135ZM46.1838 1.88735H45.1644C45.0801 1.88735 44.9958 1.97335 44.9958 2.05843V6.60252C44.9958 6.68669 45.0801 6.77269 45.1653 6.77269H46.1892C46.2781 6.77269 46.3614 6.68669 46.3614 6.60161V2.05568C46.3614 1.9706 46.2781 1.88461 46.1892 1.88461L46.1838 1.88735ZM32.2602 0.00274458H31.2417C31.1574 0.00274458 31.0722 0.0878263 31.0722 0.172908V6.60252C31.0722 6.68669 31.1538 6.77269 31.2354 6.77269H32.2593C32.3409 6.77269 32.4261 6.68669 32.4261 6.60161V0.171078C32.4261 0.0859966 32.3409 -1.35234e-08 32.2566 -1.35234e-08L32.2602 0.00274458ZM25.8082 0.258905C25.8082 0.172908 25.7239 0.172908 25.6387 0.172908H24.1109C24.0257 0.172908 23.9406 0.258905 23.9406 0.258905L21.9832 6.51653V6.68669C21.9832 6.77269 22.0647 6.77269 22.149 6.77269H23.2546C23.3379 6.77269 23.4222 6.68669 23.4222 6.68669L24.7815 2.05751C24.7815 2.05751 24.7815 1.97335 24.9509 1.97335C25.0343 1.97335 25.1195 2.05843 25.1195 2.05843L25.7149 4.20194H24.8649C24.7779 4.20194 24.6927 4.28702 24.6927 4.28702L24.439 5.13784V5.30617C24.439 5.30617 24.5232 5.39217 24.6084 5.39217H26.0492L26.39 6.59246C26.39 6.67663 26.4752 6.67663 26.5603 6.67663H27.6659C27.7511 6.67663 27.7511 6.67663 27.8381 6.58972V6.41589L25.8082 0.25799V0.258905ZM34.5529 5.74439C34.9788 5.74439 35.2325 5.65839 35.402 5.57331V4.88717H34.5529C34.2131 4.88717 34.1288 5.05825 34.1288 5.31532C34.1288 5.65565 34.2122 5.74256 34.5457 5.7453H34.5529V5.74439ZM30.4778 5.74439C30.4778 5.65839 30.4778 5.65839 30.3935 5.65839H30.2231C30.0537 5.74439 29.8833 5.74439 29.7139 5.74439C29.4601 5.74439 29.374 5.65839 29.374 5.40132V2.91565H30.3074C30.3935 2.91565 30.4778 2.83057 30.4778 2.74457V2.05843C30.4778 1.97335 30.3935 1.88735 30.3083 1.88735H29.375V0.687058C29.375 0.601976 29.375 0.601976 29.2898 0.601976C29.2898 0.601976 29.2046 0.519639 29.1194 0.601976L28.1009 0.775799C28.0157 0.775799 27.9314 0.867285 27.9314 0.949622V1.97426H27.4221C27.3406 1.97426 27.259 2.06392 27.259 2.14808V2.92114C27.259 3.00805 27.346 3.09496 27.4312 3.09496H27.9414V5.66571C27.9414 6.52202 28.3655 6.95109 29.3006 6.95109C29.5544 6.95109 29.9785 6.86417 30.234 6.77726C30.5729 6.60618 30.5729 6.60618 30.5729 6.5211L30.4878 5.74896L30.4778 5.74439ZM48.5607 5.74439C48.9866 5.74439 49.2404 5.65839 49.4098 5.57331V4.88717H48.5607C48.2218 4.88717 48.1366 5.05825 48.1366 5.31532C48.1366 5.65565 48.22 5.74256 48.5535 5.7453H48.5607V5.74439ZM34.8066 1.80135C34.2992 1.80135 33.7038 1.88735 33.2797 1.97335C33.1945 1.97335 33.1103 2.05843 33.1945 2.14443L33.2851 2.83057C33.2851 2.91565 33.2851 2.91565 33.374 2.91565H33.4582C33.8841 2.83057 34.3073 2.83057 34.6453 2.83057C35.325 2.83057 35.4953 3.00165 35.4953 3.4298V3.85978H34.4713C33.4519 3.85978 33.0278 4.28702 33.0278 5.23024C33.0278 6.17254 33.5371 6.68669 34.301 6.68669C34.8084 6.68669 35.2344 6.51561 35.6584 6.34454V6.51561C35.6584 6.60161 35.7436 6.60161 35.8279 6.60161H36.5927C36.6743 6.60161 36.7649 6.51012 36.7649 6.42779V3.51031C36.7649 2.22493 36.2574 1.79586 34.8148 1.79586L34.8066 1.80135ZM48.7311 1.80135C48.2218 1.80135 47.6274 1.88735 47.2024 1.97335C47.1117 1.97335 47.0302 2.05843 47.1117 2.14443L47.1933 2.83057C47.1933 2.91565 47.1933 2.91565 47.2776 2.91565H47.3628C47.7887 2.83057 48.2119 2.83057 48.5499 2.83057C49.2295 2.83057 49.4017 3.00165 49.4017 3.4298V3.85978H48.3904C47.3727 3.85978 46.9477 4.28702 46.9477 5.23024C46.9477 6.17254 47.457 6.68669 48.2218 6.68669C48.7311 6.68669 49.1552 6.51561 49.5811 6.34454L49.6645 6.51561C49.6645 6.60161 49.7497 6.60161 49.8348 6.60161H50.5988C50.6839 6.60161 50.7682 6.51012 50.7682 6.42779V3.51031C50.6839 2.22493 50.1738 1.79586 48.7311 1.79586V1.80135ZM46.1847 0.00182973H45.1644C45.0801 0.00182973 44.9958 0.0878263 44.9958 0.172908V1.03013C44.9958 1.11247 45.0801 1.1948 45.1653 1.1948H46.1892C46.2781 1.1948 46.3614 1.10698 46.3614 1.02098V0.171078C46.3614 0.0859966 46.2781 -1.35234e-08 46.1892 -1.35234e-08L46.1847 0.00182973Z" fill="#D6DAE5"/>
</svg>
