<svg width="117" height="23" viewBox="0 0 117 23" fill="none" xmlns="http://www.w3.org/2000/svg">
<path fill-rule="evenodd" clip-rule="evenodd" d="M114.745 19.7542C115.535 19.7542 116.166 20.3717 116.166 21.1458C116.166 21.9286 115.535 22.5374 114.738 22.5374C113.948 22.5374 113.306 21.9286 113.306 21.1458C113.306 20.3717 113.948 19.7542 114.738 19.7542H114.745ZM23.2609 22.3513H19.3459L19.1791 21.4033C17.3902 22.3513 15.7952 22.5061 14.744 22.5061C11.8711 22.5061 10.3432 20.6692 10.3432 18.126C10.3432 15.127 12.1267 14.0554 15.3167 14.0554H18.5611V13.4083C18.5611 11.8775 18.3798 11.4287 15.9148 11.4287H11.911L12.3043 7.67131H16.696C22.0828 7.67131 23.2645 9.30648 23.2645 13.4396V22.3513H23.2609V22.3513ZM81.5871 16.4595C81.5871 19.5211 80.2695 22.4905 74.754 22.4905C69.2331 22.4905 67.8901 19.5211 67.8901 16.4595V13.5023C67.8901 10.4407 69.2313 7.47126 74.7522 7.47126C80.2803 7.47126 81.6035 10.4407 81.6035 13.504V16.4612L81.5871 16.4595ZM96.6273 16.4595C96.6273 19.5211 95.3078 22.4905 89.7941 22.4905C84.2715 22.4905 82.9284 19.5211 82.9284 16.4595V13.5023C82.9284 10.4407 84.2696 7.47126 89.7923 7.47126C95.3023 7.47126 96.6255 10.4407 96.6255 13.504V16.4612L96.6273 16.4595ZM114.738 19.9734C114.103 19.9734 113.578 20.4952 113.578 21.1441C113.578 21.8051 114.103 22.3235 114.745 22.3235C115.388 22.3409 115.905 21.819 115.905 21.158C115.905 20.5144 115.388 19.989 114.745 19.989H114.738V19.9734ZM7.20939 22.3217H2.51502V11.4322H0.166016V7.67479H2.5132V5.42208C2.5132 2.36049 3.83633 0.537445 7.6027 0.537445H10.7383V4.29486H8.78083C7.3127 4.29486 7.21483 4.81672 7.21483 5.79782L7.1967 7.67653H10.7492L10.3323 11.4339H7.19852V22.3235L7.20939 22.3217V22.3217ZM114.468 21.9564H114.21V20.403C114.355 20.3856 114.482 20.3682 114.682 20.3682C114.93 20.3682 115.091 20.4152 115.189 20.483C115.287 20.5526 115.334 20.657 115.334 20.8049C115.334 21.0084 115.196 21.1319 115.026 21.1823V21.1945C115.164 21.2189 115.262 21.3406 115.298 21.5703C115.334 21.8103 115.37 21.9043 115.396 21.953H115.124C115.088 21.9043 115.046 21.7616 115.015 21.5598C114.979 21.3598 114.87 21.2867 114.667 21.2867H114.486V21.9547L114.468 21.9564V21.9564ZM114.468 21.0954H114.654C114.866 21.0954 115.046 21.0206 115.046 20.8292C115.046 20.6935 114.944 20.5578 114.654 20.5578C114.571 20.5578 114.509 20.5631 114.468 20.57V21.0954V21.0954ZM15.0394 18.0686C15.0394 18.8896 15.4454 19.3158 16.3371 19.3158C17.2978 19.3158 17.8633 19.0166 18.5629 18.707V17.0631H16.4676C15.4744 17.0631 15.0394 17.2371 15.0394 18.0668V18.0686V18.0686ZM59.8843 11.2217C58.9236 11.2217 58.2349 11.5174 57.5353 11.8306V18.7539C58.2059 18.8148 58.5901 18.8148 59.2281 18.8148C61.53 18.8148 61.8418 17.8059 61.8418 16.3969V13.0848C61.8418 12.048 61.4793 11.2113 59.8843 11.2113V11.2217ZM74.7377 11.2217C73.1391 11.2217 72.5863 12.0567 72.5863 13.083V16.8752C72.5863 17.919 73.1391 18.7539 74.7377 18.7539C76.3327 18.7539 76.8873 17.919 76.8873 16.8752V13.083C76.8873 12.0463 76.3255 11.2095 74.7305 11.2095L74.7377 11.2217ZM36.5719 11.6914C34.1359 11.2913 33.4363 11.2043 32.2654 11.2043C30.1593 11.2043 29.5231 11.6444 29.5231 13.3614V16.5969C29.5231 18.3104 30.1575 18.7539 32.2654 18.7539C33.4381 18.7539 34.1359 18.667 36.5719 18.2669V21.9269C34.4386 22.3878 33.0484 22.5079 31.8739 22.5079C26.8315 22.5079 24.8269 19.9681 24.8269 16.2977V13.671C24.8269 9.9936 26.8315 7.44865 31.8739 7.44865C33.0484 7.44865 34.4386 7.57042 36.5719 8.0314V11.6914V11.6914ZM51.2713 16.3012H42.6583V16.5969C42.6583 18.3104 43.2926 18.7539 45.3988 18.7539C47.2928 18.7539 48.4438 18.667 50.8761 18.2669V21.9269C48.5326 22.3878 47.311 22.5079 45.0091 22.5079C39.9703 22.5079 37.9766 19.9681 37.9766 16.2977V13.2883C37.9766 10.0754 39.4628 7.44343 44.6285 7.44343C49.8031 7.44343 51.2803 10.044 51.2803 13.2883V16.2977L51.2713 16.3012V16.3012ZM89.776 11.2217C88.181 11.2217 87.6282 12.0567 87.6282 13.0882V16.8857C87.6282 17.9294 88.181 18.7644 89.776 18.7644C91.371 18.7644 91.9329 17.9294 91.9329 16.8857V13.0865C91.9329 12.048 91.371 11.2113 89.776 11.2113V11.2217ZM112.064 22.32H106.977L102.67 15.4314V22.32H97.9758V1.65945L102.67 0.911447V14.2103L106.975 7.66957H112.05L107.346 14.8017L112.046 22.3165L112.064 22.32V22.32ZM44.6158 10.839C43.0208 10.839 42.6583 11.674 42.6583 12.7177V13.297H46.5733V12.7125C46.5733 11.6862 46.2108 10.8442 44.6158 10.8442V10.839ZM66.5398 16.3708C66.5398 19.9194 65.4704 22.5114 59.0541 22.5114C56.7414 22.5114 55.382 22.313 52.8264 21.9373V1.65597L57.5208 0.907968V8.00008C58.5358 7.63826 59.8498 7.45561 61.0461 7.45561C65.7405 7.45561 66.5198 9.47348 66.5198 12.7142V16.3847L66.5398 16.3708Z" fill="#D6DAE5"/>
</svg>
