<svg width="19" height="15" viewBox="0 0 19 15" fill="none" xmlns="http://www.w3.org/2000/svg">
<path d="M18.49 2.27379H17.7781C17.5138 2.27379 17.14 2.64837 17.14 2.88818V11.5801C17.14 11.8202 17.5138 12.1475 17.7781 12.1475H18.49V14.2106H12.04V12.1475H13.39V3.01063H13.3238L10.1713 14.2106H7.7306L4.61874 3.01063H4.53999V12.1475H5.88999V14.2106H0.48999V12.1475H1.18146C1.46622 12.1475 1.83999 11.8202 1.83999 11.5801V2.88818C1.83999 2.64837 1.46622 2.27379 1.18146 2.27379H0.48999V0.210632H7.24245L9.45941 8.3159H9.5204L11.7579 0.210632H18.49V2.27379Z" fill="#757E9A"/>
</svg>
