<svg width="17" height="15" viewBox="0 0 17 15" fill="none" xmlns="http://www.w3.org/2000/svg">
<path d="M6.31018 14.0994C5.83352 14.0994 5.91451 13.9117 5.75012 13.4382L4.34839 8.62552L15.1383 1.94772" fill="#9399AB"/>
<path d="M6.3103 14.0994C6.67814 14.0994 6.84066 13.9239 7.04598 13.7157L9.00777 11.7256L6.56068 10.1862" fill="#70788E"/>
<path d="M6.56032 10.1866L12.4898 14.7568C13.1665 15.1463 13.6548 14.9446 13.8234 14.1014L16.237 2.23585C16.4841 1.20229 15.8593 0.733512 15.212 1.04009L1.03929 6.74129C0.0718696 7.1461 0.0775095 7.70916 0.862951 7.96005L4.5 9.1443L12.9201 3.60248C13.3176 3.35102 13.6825 3.48621 13.383 3.76345" fill="#B6BAC7"/>
</svg>
