<svg width="19" height="15" viewBox="0 0 19 15" fill="none" xmlns="http://www.w3.org/2000/svg">
<path fill-rule="evenodd" clip-rule="evenodd" d="M18.5226 1.86597C17.8602 2.14752 17.1487 2.33701 16.4019 2.42315C17.1641 1.98548 17.7497 1.29265 18.0253 0.467386C17.3118 0.872481 16.5215 1.16668 15.6802 1.32522C15.0069 0.638576 14.0469 0.210602 12.9849 0.210602C10.9458 0.210602 9.29207 1.7933 9.29207 3.74475C9.29207 4.02199 9.32442 4.2917 9.3877 4.55037C6.31814 4.40232 3.59676 2.99459 1.77567 0.857408C1.45785 1.37959 1.27574 1.98629 1.27574 2.6339C1.27574 3.85996 1.92768 4.9416 2.91824 5.57589C2.31356 5.55705 1.74374 5.39824 1.24593 5.13311V5.17752C1.24593 6.89076 2.51999 8.31869 4.20749 8.64371C3.89812 8.72446 3.57187 8.76753 3.23634 8.76753C2.9984 8.76753 2.76665 8.74599 2.54165 8.70427C3.01134 10.1088 4.3754 11.1305 5.99118 11.1591C4.72724 12.1065 3.13481 12.6718 1.40399 12.6718C1.10587 12.6718 0.812525 12.6556 0.523682 12.6225C2.15774 13.6254 4.09921 14.2106 6.18454 14.2106C12.9767 14.2106 16.6913 8.82459 16.6913 4.15456C16.6913 4.00113 16.6877 3.84905 16.6806 3.69698C17.4023 3.19902 18.0287 2.5759 18.5237 1.86665" fill="#6188FF"/>
</svg>
