<svg width="117" height="25" viewBox="0 0 117 25" fill="none" xmlns="http://www.w3.org/2000/svg">
<path fill-rule="evenodd" clip-rule="evenodd" d="M15.1376 6.451C13.0885 6.30505 11.3504 7.55483 10.3816 7.55483C9.39739 7.55483 7.88032 6.48246 6.27173 6.51043C4.16016 6.54189 2.21263 7.69554 1.12423 9.52039C-1.06981 13.1937 0.564162 18.6351 2.7011 21.6136C3.74601 23.0713 4.9921 24.7109 6.6297 24.6515C8.20657 24.5912 8.80198 23.6665 10.7069 23.6665C12.611 23.6665 13.1484 24.6515 14.815 24.62C16.5105 24.5912 17.5863 23.136 18.623 21.6704C19.8238 19.981 20.3177 18.3458 20.3467 18.2566C20.3086 18.2444 17.0398 17.0322 17.0072 13.4008C16.9782 10.3655 19.5773 8.90512 19.696 8.83432C18.2197 6.73941 15.9405 6.50868 15.1376 6.451V6.451ZM97.0255 18.3073V18.6289C97.0255 21.7988 94.6212 24.6349 89.7963 24.6349C84.985 24.6349 82.1249 21.7219 82.1249 16.631V14.5047C82.1249 9.46621 84.9986 6.46236 89.809 6.46236C94.3257 6.46236 97.0255 9.20838 97.0255 12.6361V12.8161H93.4032C93.4032 11.0769 92.2541 9.53001 89.8353 9.53001C87.2561 9.53001 85.9592 11.1923 85.9592 14.5047V16.631C85.9592 19.9819 87.2434 21.5419 89.8616 21.5419C92.4679 21.5419 93.4032 20.1234 93.4032 18.3073H97.0255V18.3073ZM31.1537 19.3124H31.2072L34.4552 6.7464H38.2905L41.5512 19.3124H41.6046L44.6261 6.7464H48.6616L43.5966 24.3395H39.7604L36.4064 12.3136H36.3393L32.9844 24.3395H29.1763L24.0977 6.7464H28.1341L31.1537 19.3124V19.3124ZM104.83 13.809H112.287V6.7464H116.083V24.3395H112.287V16.8382H104.83V24.3395H101.048V6.7464H104.83V13.809V13.809ZM79.6789 6.7464V9.78783H74.2405V24.3395H70.4714V9.78783H65.0457V6.7464H79.6789V6.7464ZM59.2448 6.7464L65.1119 24.3386H61.0618L59.7613 19.9049H53.9913L52.6699 24.3386H48.8882L54.7688 6.7464H59.2448V6.7464ZM58.9702 17.1991L56.9203 10.2135H56.8804L54.7987 17.1991H58.9702ZM13.79 4.57807C12.9145 5.54644 11.5361 6.2832 10.1831 6.18269C9.99098 4.80531 10.6979 3.3685 11.5026 2.47005C12.4007 1.45799 13.915 0.700255 15.1675 0.653061C15.3288 2.05666 14.7425 3.47075 13.8725 4.48281L13.8317 4.53088L13.79 4.57807Z" fill="#D6DAE5"/>
</svg>
